<mxfile host="app.diagrams.net" modified="2023-12-24T08:48:49.140Z" agent="Mozilla/5.0 (Macintosh; Intel Mac OS X 10_15_7) AppleWebKit/537.36 (KHTML, like Gecko) Chrome/118.0.0.0 Safari/537.36" etag="dLdCkCZEHkQg6d2sh5KQ" version="22.1.11" type="device">
  <diagram id="dDf30LXxpHUZ1cEw3kPy" name="Page-1">
    <mxGraphModel dx="2020" dy="758" grid="1" gridSize="10" guides="1" tooltips="1" connect="1" arrows="1" fold="1" page="1" pageScale="1" pageWidth="827" pageHeight="1169" math="0" shadow="0">
      <root>
        <mxCell id="0" />
        <mxCell id="1" parent="0" />
        <mxCell id="x77Hb8dy-aHqXex64RiV-9" style="edgeStyle=orthogonalEdgeStyle;rounded=0;orthogonalLoop=1;jettySize=auto;html=1;exitX=0.5;exitY=1;exitDx=0;exitDy=0;" edge="1" parent="1" source="x77Hb8dy-aHqXex64RiV-1" target="x77Hb8dy-aHqXex64RiV-8">
          <mxGeometry relative="1" as="geometry" />
        </mxCell>
        <mxCell id="x77Hb8dy-aHqXex64RiV-1" value="Index Page" style="rounded=0;whiteSpace=wrap;html=1;" vertex="1" parent="1">
          <mxGeometry x="360" y="40" width="120" height="60" as="geometry" />
        </mxCell>
        <mxCell id="x77Hb8dy-aHqXex64RiV-12" style="edgeStyle=orthogonalEdgeStyle;rounded=0;orthogonalLoop=1;jettySize=auto;html=1;exitX=0.5;exitY=1;exitDx=0;exitDy=0;" edge="1" parent="1" source="x77Hb8dy-aHqXex64RiV-8" target="x77Hb8dy-aHqXex64RiV-10">
          <mxGeometry relative="1" as="geometry" />
        </mxCell>
        <mxCell id="x77Hb8dy-aHqXex64RiV-13" style="edgeStyle=orthogonalEdgeStyle;rounded=0;orthogonalLoop=1;jettySize=auto;html=1;exitX=0.5;exitY=1;exitDx=0;exitDy=0;entryX=0.5;entryY=0;entryDx=0;entryDy=0;" edge="1" parent="1" source="x77Hb8dy-aHqXex64RiV-8" target="x77Hb8dy-aHqXex64RiV-11">
          <mxGeometry relative="1" as="geometry" />
        </mxCell>
        <mxCell id="x77Hb8dy-aHqXex64RiV-8" value="Enter Name" style="rounded=1;whiteSpace=wrap;html=1;fillColor=#dae8fc;strokeColor=#6c8ebf;" vertex="1" parent="1">
          <mxGeometry x="360" y="130" width="120" height="60" as="geometry" />
        </mxCell>
        <mxCell id="x77Hb8dy-aHqXex64RiV-17" style="edgeStyle=orthogonalEdgeStyle;rounded=0;orthogonalLoop=1;jettySize=auto;html=1;exitX=0.5;exitY=1;exitDx=0;exitDy=0;entryX=0.5;entryY=0;entryDx=0;entryDy=0;" edge="1" parent="1" source="x77Hb8dy-aHqXex64RiV-10" target="x77Hb8dy-aHqXex64RiV-14">
          <mxGeometry relative="1" as="geometry" />
        </mxCell>
        <mxCell id="x77Hb8dy-aHqXex64RiV-10" value="Create Room" style="rounded=1;whiteSpace=wrap;html=1;fillColor=#dae8fc;strokeColor=#6c8ebf;" vertex="1" parent="1">
          <mxGeometry x="280" y="240" width="120" height="60" as="geometry" />
        </mxCell>
        <mxCell id="x77Hb8dy-aHqXex64RiV-16" style="edgeStyle=orthogonalEdgeStyle;rounded=0;orthogonalLoop=1;jettySize=auto;html=1;exitX=0.5;exitY=1;exitDx=0;exitDy=0;entryX=0.5;entryY=0;entryDx=0;entryDy=0;" edge="1" parent="1" source="x77Hb8dy-aHqXex64RiV-11" target="x77Hb8dy-aHqXex64RiV-15">
          <mxGeometry relative="1" as="geometry" />
        </mxCell>
        <mxCell id="x77Hb8dy-aHqXex64RiV-11" value="Join Room" style="rounded=1;whiteSpace=wrap;html=1;fillColor=#dae8fc;strokeColor=#6c8ebf;" vertex="1" parent="1">
          <mxGeometry x="440" y="240" width="120" height="60" as="geometry" />
        </mxCell>
        <mxCell id="x77Hb8dy-aHqXex64RiV-20" style="edgeStyle=orthogonalEdgeStyle;rounded=0;orthogonalLoop=1;jettySize=auto;html=1;exitX=0.5;exitY=1;exitDx=0;exitDy=0;" edge="1" parent="1" source="x77Hb8dy-aHqXex64RiV-14" target="x77Hb8dy-aHqXex64RiV-19">
          <mxGeometry relative="1" as="geometry" />
        </mxCell>
        <mxCell id="x77Hb8dy-aHqXex64RiV-14" value="Create Room Page" style="rounded=0;whiteSpace=wrap;html=1;" vertex="1" parent="1">
          <mxGeometry x="280" y="340" width="120" height="60" as="geometry" />
        </mxCell>
        <mxCell id="x77Hb8dy-aHqXex64RiV-22" style="edgeStyle=orthogonalEdgeStyle;rounded=0;orthogonalLoop=1;jettySize=auto;html=1;exitX=0.5;exitY=1;exitDx=0;exitDy=0;entryX=0.5;entryY=0;entryDx=0;entryDy=0;" edge="1" parent="1" source="x77Hb8dy-aHqXex64RiV-15" target="x77Hb8dy-aHqXex64RiV-21">
          <mxGeometry relative="1" as="geometry" />
        </mxCell>
        <mxCell id="x77Hb8dy-aHqXex64RiV-15" value="Join Room Page" style="rounded=0;whiteSpace=wrap;html=1;" vertex="1" parent="1">
          <mxGeometry x="440" y="340" width="120" height="60" as="geometry" />
        </mxCell>
        <mxCell id="x77Hb8dy-aHqXex64RiV-26" style="edgeStyle=orthogonalEdgeStyle;rounded=0;orthogonalLoop=1;jettySize=auto;html=1;exitX=0.5;exitY=1;exitDx=0;exitDy=0;entryX=0.5;entryY=0;entryDx=0;entryDy=0;" edge="1" parent="1" source="x77Hb8dy-aHqXex64RiV-19" target="x77Hb8dy-aHqXex64RiV-25">
          <mxGeometry relative="1" as="geometry" />
        </mxCell>
        <mxCell id="x77Hb8dy-aHqXex64RiV-19" value="Generate Room ID" style="rounded=1;whiteSpace=wrap;html=1;fillColor=#dae8fc;strokeColor=#6c8ebf;" vertex="1" parent="1">
          <mxGeometry x="280" y="440" width="120" height="60" as="geometry" />
        </mxCell>
        <mxCell id="x77Hb8dy-aHqXex64RiV-27" style="edgeStyle=orthogonalEdgeStyle;rounded=0;orthogonalLoop=1;jettySize=auto;html=1;exitX=0.5;exitY=1;exitDx=0;exitDy=0;" edge="1" parent="1" source="x77Hb8dy-aHqXex64RiV-21" target="x77Hb8dy-aHqXex64RiV-25">
          <mxGeometry relative="1" as="geometry" />
        </mxCell>
        <mxCell id="x77Hb8dy-aHqXex64RiV-21" value="Enter Room ID" style="rounded=1;whiteSpace=wrap;html=1;fillColor=#dae8fc;strokeColor=#6c8ebf;" vertex="1" parent="1">
          <mxGeometry x="440" y="440" width="120" height="60" as="geometry" />
        </mxCell>
        <mxCell id="x77Hb8dy-aHqXex64RiV-29" style="edgeStyle=orthogonalEdgeStyle;rounded=0;orthogonalLoop=1;jettySize=auto;html=1;exitX=0.5;exitY=1;exitDx=0;exitDy=0;entryX=0.5;entryY=0;entryDx=0;entryDy=0;" edge="1" parent="1" source="x77Hb8dy-aHqXex64RiV-25" target="x77Hb8dy-aHqXex64RiV-28">
          <mxGeometry relative="1" as="geometry" />
        </mxCell>
        <mxCell id="x77Hb8dy-aHqXex64RiV-25" value="Pairing" style="rounded=1;whiteSpace=wrap;html=1;fillColor=#dae8fc;strokeColor=#6c8ebf;" vertex="1" parent="1">
          <mxGeometry x="360" y="560" width="120" height="60" as="geometry" />
        </mxCell>
        <mxCell id="x77Hb8dy-aHqXex64RiV-34" style="edgeStyle=orthogonalEdgeStyle;rounded=0;orthogonalLoop=1;jettySize=auto;html=1;exitX=0.5;exitY=1;exitDx=0;exitDy=0;entryX=0.5;entryY=0;entryDx=0;entryDy=0;" edge="1" parent="1" source="x77Hb8dy-aHqXex64RiV-28" target="x77Hb8dy-aHqXex64RiV-30">
          <mxGeometry relative="1" as="geometry" />
        </mxCell>
        <mxCell id="x77Hb8dy-aHqXex64RiV-35" style="edgeStyle=orthogonalEdgeStyle;rounded=0;orthogonalLoop=1;jettySize=auto;html=1;exitX=0.5;exitY=1;exitDx=0;exitDy=0;entryX=0.5;entryY=0;entryDx=0;entryDy=0;" edge="1" parent="1" source="x77Hb8dy-aHqXex64RiV-28" target="x77Hb8dy-aHqXex64RiV-32">
          <mxGeometry relative="1" as="geometry" />
        </mxCell>
        <mxCell id="x77Hb8dy-aHqXex64RiV-28" value="Game Room" style="rounded=0;whiteSpace=wrap;html=1;" vertex="1" parent="1">
          <mxGeometry x="360" y="660" width="120" height="60" as="geometry" />
        </mxCell>
        <mxCell id="x77Hb8dy-aHqXex64RiV-38" style="edgeStyle=orthogonalEdgeStyle;rounded=0;orthogonalLoop=1;jettySize=auto;html=1;exitX=0.5;exitY=1;exitDx=0;exitDy=0;entryX=0.5;entryY=0;entryDx=0;entryDy=0;" edge="1" parent="1" source="x77Hb8dy-aHqXex64RiV-30" target="x77Hb8dy-aHqXex64RiV-36">
          <mxGeometry relative="1" as="geometry" />
        </mxCell>
        <mxCell id="x77Hb8dy-aHqXex64RiV-39" style="edgeStyle=orthogonalEdgeStyle;rounded=0;orthogonalLoop=1;jettySize=auto;html=1;exitX=0.5;exitY=1;exitDx=0;exitDy=0;" edge="1" parent="1" source="x77Hb8dy-aHqXex64RiV-30" target="x77Hb8dy-aHqXex64RiV-37">
          <mxGeometry relative="1" as="geometry" />
        </mxCell>
        <mxCell id="x77Hb8dy-aHqXex64RiV-30" value="Room&lt;br&gt;Preparing" style="ellipse;whiteSpace=wrap;html=1;fillColor=#ffe6cc;strokeColor=#d79b00;" vertex="1" parent="1">
          <mxGeometry x="-65" y="760" width="120" height="80" as="geometry" />
        </mxCell>
        <mxCell id="x77Hb8dy-aHqXex64RiV-78" style="edgeStyle=orthogonalEdgeStyle;rounded=0;orthogonalLoop=1;jettySize=auto;html=1;exitX=0.5;exitY=1;exitDx=0;exitDy=0;entryX=0.5;entryY=0;entryDx=0;entryDy=0;" edge="1" parent="1" source="x77Hb8dy-aHqXex64RiV-32" target="x77Hb8dy-aHqXex64RiV-77">
          <mxGeometry relative="1" as="geometry" />
        </mxCell>
        <mxCell id="x77Hb8dy-aHqXex64RiV-32" value="Room&lt;br&gt;Playing" style="ellipse;whiteSpace=wrap;html=1;fillColor=#ffe6cc;strokeColor=#d79b00;" vertex="1" parent="1">
          <mxGeometry x="750" y="760" width="120" height="80" as="geometry" />
        </mxCell>
        <mxCell id="x77Hb8dy-aHqXex64RiV-49" style="edgeStyle=orthogonalEdgeStyle;rounded=0;orthogonalLoop=1;jettySize=auto;html=1;exitX=0.5;exitY=1;exitDx=0;exitDy=0;entryX=0.5;entryY=0;entryDx=0;entryDy=0;" edge="1" parent="1" source="x77Hb8dy-aHqXex64RiV-36" target="x77Hb8dy-aHqXex64RiV-44">
          <mxGeometry relative="1" as="geometry" />
        </mxCell>
        <mxCell id="x77Hb8dy-aHqXex64RiV-36" value="Player&lt;br&gt;Preparing" style="ellipse;whiteSpace=wrap;html=1;fillColor=#ffe6cc;strokeColor=#d79b00;" vertex="1" parent="1">
          <mxGeometry x="-165" y="880" width="120" height="80" as="geometry" />
        </mxCell>
        <mxCell id="x77Hb8dy-aHqXex64RiV-46" style="edgeStyle=orthogonalEdgeStyle;rounded=0;orthogonalLoop=1;jettySize=auto;html=1;exitX=0.5;exitY=1;exitDx=0;exitDy=0;entryX=0.5;entryY=0;entryDx=0;entryDy=0;" edge="1" parent="1" source="x77Hb8dy-aHqXex64RiV-37" target="x77Hb8dy-aHqXex64RiV-44">
          <mxGeometry relative="1" as="geometry" />
        </mxCell>
        <mxCell id="x77Hb8dy-aHqXex64RiV-37" value="Opponent&lt;br&gt;Preparing" style="ellipse;whiteSpace=wrap;html=1;fillColor=#ffe6cc;strokeColor=#d79b00;" vertex="1" parent="1">
          <mxGeometry x="25" y="880" width="120" height="80" as="geometry" />
        </mxCell>
        <mxCell id="x77Hb8dy-aHqXex64RiV-45" value="" style="group" vertex="1" connectable="0" parent="1">
          <mxGeometry x="-270" y="1030" width="530" height="80" as="geometry" />
        </mxCell>
        <mxCell id="x77Hb8dy-aHqXex64RiV-44" value="" style="rounded=1;whiteSpace=wrap;html=1;fillColor=#dae8fc;strokeColor=#6c8ebf;" vertex="1" parent="x77Hb8dy-aHqXex64RiV-45">
          <mxGeometry width="530" height="80" as="geometry" />
        </mxCell>
        <mxCell id="x77Hb8dy-aHqXex64RiV-40" value="Subway" style="rounded=1;whiteSpace=wrap;html=1;fillColor=#dae8fc;strokeColor=#6c8ebf;" vertex="1" parent="x77Hb8dy-aHqXex64RiV-45">
          <mxGeometry x="10" y="10" width="120" height="60" as="geometry" />
        </mxCell>
        <mxCell id="x77Hb8dy-aHqXex64RiV-41" value="Destroyer" style="rounded=1;whiteSpace=wrap;html=1;fillColor=#dae8fc;strokeColor=#6c8ebf;" vertex="1" parent="x77Hb8dy-aHqXex64RiV-45">
          <mxGeometry x="140" y="10" width="120" height="60" as="geometry" />
        </mxCell>
        <mxCell id="x77Hb8dy-aHqXex64RiV-42" value="Cruiser" style="rounded=1;whiteSpace=wrap;html=1;fillColor=#dae8fc;strokeColor=#6c8ebf;" vertex="1" parent="x77Hb8dy-aHqXex64RiV-45">
          <mxGeometry x="270" y="10" width="120" height="60" as="geometry" />
        </mxCell>
        <mxCell id="x77Hb8dy-aHqXex64RiV-43" value="BattleShip" style="rounded=1;whiteSpace=wrap;html=1;fillColor=#dae8fc;strokeColor=#6c8ebf;" vertex="1" parent="x77Hb8dy-aHqXex64RiV-45">
          <mxGeometry x="400" y="10" width="120" height="60" as="geometry" />
        </mxCell>
        <mxCell id="x77Hb8dy-aHqXex64RiV-75" style="edgeStyle=orthogonalEdgeStyle;rounded=0;orthogonalLoop=1;jettySize=auto;html=1;exitX=0.5;exitY=1;exitDx=0;exitDy=0;entryX=0.5;entryY=0;entryDx=0;entryDy=0;" edge="1" parent="1" source="x77Hb8dy-aHqXex64RiV-50" target="x77Hb8dy-aHqXex64RiV-70">
          <mxGeometry relative="1" as="geometry" />
        </mxCell>
        <mxCell id="x77Hb8dy-aHqXex64RiV-50" value="Player&lt;br&gt;Ready" style="rounded=1;whiteSpace=wrap;html=1;fillColor=#d5e8d4;strokeColor=#82b366;" vertex="1" parent="1">
          <mxGeometry x="-170" y="1169" width="120" height="60" as="geometry" />
        </mxCell>
        <mxCell id="x77Hb8dy-aHqXex64RiV-52" style="edgeStyle=orthogonalEdgeStyle;rounded=0;orthogonalLoop=1;jettySize=auto;html=1;exitX=0.5;exitY=1;exitDx=0;exitDy=0;" edge="1" parent="1" source="x77Hb8dy-aHqXex64RiV-44" target="x77Hb8dy-aHqXex64RiV-50">
          <mxGeometry relative="1" as="geometry" />
        </mxCell>
        <mxCell id="x77Hb8dy-aHqXex64RiV-73" style="edgeStyle=orthogonalEdgeStyle;rounded=0;orthogonalLoop=1;jettySize=auto;html=1;exitX=0.5;exitY=1;exitDx=0;exitDy=0;" edge="1" parent="1" source="x77Hb8dy-aHqXex64RiV-53" target="x77Hb8dy-aHqXex64RiV-70">
          <mxGeometry relative="1" as="geometry" />
        </mxCell>
        <mxCell id="x77Hb8dy-aHqXex64RiV-53" value="Opponent&lt;br&gt;Ready" style="rounded=1;whiteSpace=wrap;html=1;fillColor=#d5e8d4;strokeColor=#82b366;" vertex="1" parent="1">
          <mxGeometry x="25" y="1169" width="120" height="60" as="geometry" />
        </mxCell>
        <mxCell id="x77Hb8dy-aHqXex64RiV-54" style="edgeStyle=orthogonalEdgeStyle;rounded=0;orthogonalLoop=1;jettySize=auto;html=1;exitX=0.5;exitY=1;exitDx=0;exitDy=0;" edge="1" parent="1" source="x77Hb8dy-aHqXex64RiV-44" target="x77Hb8dy-aHqXex64RiV-53">
          <mxGeometry relative="1" as="geometry" />
        </mxCell>
        <mxCell id="x77Hb8dy-aHqXex64RiV-68" value="" style="group" vertex="1" connectable="0" parent="1">
          <mxGeometry x="-210" y="1390" width="410" height="80" as="geometry" />
        </mxCell>
        <mxCell id="x77Hb8dy-aHqXex64RiV-67" value="" style="rounded=1;whiteSpace=wrap;html=1;fillColor=#d5e8d4;strokeColor=#82b366;" vertex="1" parent="x77Hb8dy-aHqXex64RiV-68">
          <mxGeometry width="410" height="80" as="geometry" />
        </mxCell>
        <mxCell id="x77Hb8dy-aHqXex64RiV-64" value="Player&lt;br&gt;Playing" style="rounded=1;whiteSpace=wrap;html=1;fillColor=#d5e8d4;strokeColor=#82b366;" vertex="1" parent="x77Hb8dy-aHqXex64RiV-68">
          <mxGeometry x="10" y="11" width="120" height="60" as="geometry" />
        </mxCell>
        <mxCell id="x77Hb8dy-aHqXex64RiV-65" value="Opponent&lt;br&gt;Playing" style="rounded=1;whiteSpace=wrap;html=1;fillColor=#d5e8d4;strokeColor=#82b366;" vertex="1" parent="x77Hb8dy-aHqXex64RiV-68">
          <mxGeometry x="145" y="11" width="120" height="60" as="geometry" />
        </mxCell>
        <mxCell id="x77Hb8dy-aHqXex64RiV-66" value="Room&lt;br&gt;Playing" style="rounded=1;whiteSpace=wrap;html=1;fillColor=#d5e8d4;strokeColor=#82b366;" vertex="1" parent="x77Hb8dy-aHqXex64RiV-68">
          <mxGeometry x="280" y="11" width="120" height="60" as="geometry" />
        </mxCell>
        <mxCell id="x77Hb8dy-aHqXex64RiV-76" style="edgeStyle=orthogonalEdgeStyle;rounded=0;orthogonalLoop=1;jettySize=auto;html=1;exitX=0.5;exitY=1;exitDx=0;exitDy=0;entryX=0.5;entryY=0;entryDx=0;entryDy=0;" edge="1" parent="1" source="x77Hb8dy-aHqXex64RiV-70" target="x77Hb8dy-aHqXex64RiV-67">
          <mxGeometry relative="1" as="geometry" />
        </mxCell>
        <mxCell id="x77Hb8dy-aHqXex64RiV-70" value="Both&lt;br&gt;Ready" style="ellipse;whiteSpace=wrap;html=1;fillColor=#ffe6cc;strokeColor=#d79b00;" vertex="1" parent="1">
          <mxGeometry x="-62.5" y="1270" width="115" height="80" as="geometry" />
        </mxCell>
        <mxCell id="x77Hb8dy-aHqXex64RiV-81" style="edgeStyle=orthogonalEdgeStyle;rounded=0;orthogonalLoop=1;jettySize=auto;html=1;exitX=0.5;exitY=1;exitDx=0;exitDy=0;entryX=0.5;entryY=0;entryDx=0;entryDy=0;" edge="1" parent="1" source="x77Hb8dy-aHqXex64RiV-77" target="x77Hb8dy-aHqXex64RiV-79">
          <mxGeometry relative="1" as="geometry" />
        </mxCell>
        <mxCell id="x77Hb8dy-aHqXex64RiV-82" style="edgeStyle=orthogonalEdgeStyle;rounded=0;orthogonalLoop=1;jettySize=auto;html=1;exitX=0.5;exitY=1;exitDx=0;exitDy=0;" edge="1" parent="1" source="x77Hb8dy-aHqXex64RiV-77" target="x77Hb8dy-aHqXex64RiV-80">
          <mxGeometry relative="1" as="geometry" />
        </mxCell>
        <mxCell id="x77Hb8dy-aHqXex64RiV-77" value="decide&amp;nbsp; whose turn" style="rounded=1;whiteSpace=wrap;html=1;fillColor=#d5e8d4;strokeColor=#82b366;" vertex="1" parent="1">
          <mxGeometry x="750" y="870" width="120" height="60" as="geometry" />
        </mxCell>
        <mxCell id="x77Hb8dy-aHqXex64RiV-84" style="edgeStyle=orthogonalEdgeStyle;rounded=0;orthogonalLoop=1;jettySize=auto;html=1;exitX=0.5;exitY=1;exitDx=0;exitDy=0;" edge="1" parent="1" source="x77Hb8dy-aHqXex64RiV-79" target="x77Hb8dy-aHqXex64RiV-83">
          <mxGeometry relative="1" as="geometry" />
        </mxCell>
        <mxCell id="x77Hb8dy-aHqXex64RiV-79" value="Attack Turn" style="ellipse;whiteSpace=wrap;html=1;fillColor=#ffe6cc;strokeColor=#d79b00;" vertex="1" parent="1">
          <mxGeometry x="650" y="1020" width="120" height="80" as="geometry" />
        </mxCell>
        <mxCell id="x77Hb8dy-aHqXex64RiV-86" style="edgeStyle=orthogonalEdgeStyle;rounded=0;orthogonalLoop=1;jettySize=auto;html=1;exitX=0.5;exitY=1;exitDx=0;exitDy=0;entryX=0.5;entryY=0;entryDx=0;entryDy=0;" edge="1" parent="1" source="x77Hb8dy-aHqXex64RiV-80" target="x77Hb8dy-aHqXex64RiV-85">
          <mxGeometry relative="1" as="geometry" />
        </mxCell>
        <mxCell id="x77Hb8dy-aHqXex64RiV-80" value="Defense Turn" style="ellipse;whiteSpace=wrap;html=1;fillColor=#ffe6cc;strokeColor=#d79b00;" vertex="1" parent="1">
          <mxGeometry x="850" y="1020" width="120" height="80" as="geometry" />
        </mxCell>
        <mxCell id="x77Hb8dy-aHqXex64RiV-89" style="edgeStyle=orthogonalEdgeStyle;rounded=0;orthogonalLoop=1;jettySize=auto;html=1;exitX=0.5;exitY=1;exitDx=0;exitDy=0;" edge="1" parent="1" source="x77Hb8dy-aHqXex64RiV-83" target="x77Hb8dy-aHqXex64RiV-88">
          <mxGeometry relative="1" as="geometry" />
        </mxCell>
        <mxCell id="x77Hb8dy-aHqXex64RiV-83" value="click opponent grid to attack" style="rounded=1;whiteSpace=wrap;html=1;fillColor=#d5e8d4;strokeColor=#82b366;" vertex="1" parent="1">
          <mxGeometry x="650" y="1140" width="120" height="60" as="geometry" />
        </mxCell>
        <mxCell id="x77Hb8dy-aHqXex64RiV-90" style="edgeStyle=orthogonalEdgeStyle;rounded=0;orthogonalLoop=1;jettySize=auto;html=1;exitX=0.5;exitY=1;exitDx=0;exitDy=0;entryX=0.5;entryY=0;entryDx=0;entryDy=0;" edge="1" parent="1" source="x77Hb8dy-aHqXex64RiV-85" target="x77Hb8dy-aHqXex64RiV-88">
          <mxGeometry relative="1" as="geometry" />
        </mxCell>
        <mxCell id="x77Hb8dy-aHqXex64RiV-85" value="disable both grid and wait" style="rounded=1;whiteSpace=wrap;html=1;fillColor=#d5e8d4;strokeColor=#82b366;" vertex="1" parent="1">
          <mxGeometry x="850" y="1140" width="120" height="60" as="geometry" />
        </mxCell>
        <mxCell id="x77Hb8dy-aHqXex64RiV-93" style="edgeStyle=orthogonalEdgeStyle;rounded=0;orthogonalLoop=1;jettySize=auto;html=1;exitX=0.5;exitY=1;exitDx=0;exitDy=0;" edge="1" parent="1" source="x77Hb8dy-aHqXex64RiV-88" target="x77Hb8dy-aHqXex64RiV-92">
          <mxGeometry relative="1" as="geometry" />
        </mxCell>
        <mxCell id="x77Hb8dy-aHqXex64RiV-94" style="edgeStyle=orthogonalEdgeStyle;rounded=0;orthogonalLoop=1;jettySize=auto;html=1;exitX=1;exitY=0.5;exitDx=0;exitDy=0;entryX=1;entryY=0.5;entryDx=0;entryDy=0;" edge="1" parent="1" source="x77Hb8dy-aHqXex64RiV-88" target="x77Hb8dy-aHqXex64RiV-77">
          <mxGeometry relative="1" as="geometry">
            <Array as="points">
              <mxPoint x="1010" y="1300" />
              <mxPoint x="1010" y="900" />
            </Array>
          </mxGeometry>
        </mxCell>
        <mxCell id="x77Hb8dy-aHqXex64RiV-88" value="Judge victor or defeat" style="ellipse;whiteSpace=wrap;html=1;fillColor=#ffe6cc;strokeColor=#d79b00;" vertex="1" parent="1">
          <mxGeometry x="755" y="1260" width="115" height="80" as="geometry" />
        </mxCell>
        <mxCell id="x77Hb8dy-aHqXex64RiV-92" value="show result" style="rounded=1;whiteSpace=wrap;html=1;fillColor=#d5e8d4;strokeColor=#82b366;" vertex="1" parent="1">
          <mxGeometry x="752.5" y="1410" width="120" height="60" as="geometry" />
        </mxCell>
        <mxCell id="x77Hb8dy-aHqXex64RiV-95" value="Next turn" style="text;html=1;strokeColor=none;fillColor=none;align=center;verticalAlign=middle;whiteSpace=wrap;rounded=0;" vertex="1" parent="1">
          <mxGeometry x="1020" y="1070" width="60" height="30" as="geometry" />
        </mxCell>
      </root>
    </mxGraphModel>
  </diagram>
</mxfile>
